<?xml version="1.0" encoding="utf-8"?>
<!-- Generator: Adobe Illustrator 16.0.0, SVG Export Plug-In . SVG Version: 6.00 Build 0)  -->
<!DOCTYPE svg PUBLIC "-//W3C//DTD SVG 1.1//EN" "http://www.w3.org/Graphics/SVG/1.1/DTD/svg11.dtd">
<svg version="1.1" id="Layer_1" xmlns="http://www.w3.org/2000/svg" xmlns:xlink="http://www.w3.org/1999/xlink" x="0px" y="0px"
	 width="273px" height="271.833px" viewBox="0 0 273 271.833" enable-background="new 0 0 273 271.833" xml:space="preserve">
<g>
	
		<line fill="none" stroke="#FFFFFF" stroke-width="20" stroke-linecap="round" stroke-miterlimit="10" x1="159.652" y1="112.985" x2="14.705" y2="257.5"/>
	
		<line fill="none" stroke="#000000" stroke-width="10" stroke-linecap="round" stroke-miterlimit="10" x1="159.652" y1="112.985" x2="14.705" y2="257.5"/>
	<polygon stroke="#FFFFFF" stroke-width="10" stroke-miterlimit="10" points="171.742,87.781 185.324,100.318 234.953,87.781 
		266.295,7.333 182.189,39.199 	"/>
	
		<rect x="161.67" y="85.557" transform="matrix(0.7031 0.7111 -0.7111 0.7031 122.03 -92.4715)" stroke="#FFFFFF" stroke-width="5" stroke-linecap="round" stroke-miterlimit="10" width="20.146" height="28.659"/>
	
		<line fill="none" stroke="#FFFFFF" stroke-width="5" stroke-linecap="round" stroke-miterlimit="10" x1="186.494" y1="43.293" x2="230.109" y2="82.649"/>
	<g>
		<path fill="#FFFFFF" d="M253.109,20.667l-42.449,44.59c-0.764,0.8-2.029,0.832-2.83,0.07c-0.801-0.762-0.832-2.029-0.07-2.829
			c0.029-0.03,0.063-0.063,0.094-0.091L253.109,20.667z"/>
	</g>
</g>
</svg>
