<?xml version="1.0" encoding="utf-8"?>
<!-- Generator: Adobe Illustrator 16.0.0, SVG Export Plug-In . SVG Version: 6.00 Build 0)  -->
<!DOCTYPE svg PUBLIC "-//W3C//DTD SVG 1.1//EN" "http://www.w3.org/Graphics/SVG/1.1/DTD/svg11.dtd">
<svg version="1.1" id="Layer_1" xmlns="http://www.w3.org/2000/svg" xmlns:xlink="http://www.w3.org/1999/xlink" x="0px" y="0px"
	 width="273px" height="271.833px" viewBox="0 0 273 271.833" enable-background="new 0 0 273 271.833" xml:space="preserve">
<g>
	<line fill="none" stroke="#FFFFFF" stroke-width="10" stroke-miterlimit="10" x1="35.044" y1="24.541" x2="237.659" y2="236.234"/>
	<path fill="none" stroke="#FFFFFF" stroke-width="20" stroke-miterlimit="10" d="M242.247,216.069
		C271.301,79.972,142.086,3.513,56.452,24.541"/>
	<path fill="none" stroke="#000000" stroke-width="10" stroke-miterlimit="10" d="M242.247,216.069
		C271.301,79.972,142.086,3.513,56.452,24.541"/>
	<line fill="none" stroke="#FFFFFF" stroke-width="10" stroke-miterlimit="10" x1="76.714" y1="196.134" x2="221.985" y2="51.683"/>
	<line fill="none" stroke="#000000" stroke-width="5" stroke-miterlimit="10" x1="221.985" y1="51.683" x2="76.714" y2="196.134"/>
	<polygon stroke="#FFFFFF" stroke-width="10" stroke-miterlimit="10" points="203.636,32.186 267.479,5.807 241.865,69.268 	"/>
	<polygon stroke="#FFFFFF" stroke-width="10" stroke-miterlimit="10" points="5.225,242.212 33.897,242.212 33.897,269.978 
		80.919,222.956 77.861,195.813 50.335,194.614 	"/>
	<line fill="none" stroke="#000000" stroke-width="5" stroke-miterlimit="10" x1="35.044" y1="24.541" x2="237.659" y2="236.234"/>
	<circle stroke="#FFFFFF" stroke-width="10" stroke-miterlimit="10" cx="35.044" cy="24.54" r="15.675"/>
	<circle stroke="#FFFFFF" stroke-width="10" stroke-miterlimit="10" cx="237.66" cy="236.234" r="15.674"/>
</g>
</svg>
