<?xml version="1.0" encoding="utf-8"?>
<!-- Generator: Adobe Illustrator 16.0.0, SVG Export Plug-In . SVG Version: 6.00 Build 0)  -->
<!DOCTYPE svg PUBLIC "-//W3C//DTD SVG 1.1//EN" "http://www.w3.org/Graphics/SVG/1.1/DTD/svg11.dtd">
<svg version="1.1" id="Layer_1" xmlns="http://www.w3.org/2000/svg" xmlns:xlink="http://www.w3.org/1999/xlink" x="0px" y="0px"
	 width="273px" height="271.833px" viewBox="0 0 273 271.833" enable-background="new 0 0 273 271.833" xml:space="preserve">
<g>
	<path stroke="#FFFFFF" stroke-width="10" stroke-linecap="round" stroke-miterlimit="10" d="M139.649,118.318l15.971,15.97
		c0,0,91.274-81.493,91.246-81.693c-0.392-2.636-9.339-4.495-14.287-8.824c-4.603-4.026-9.305-15.626-11.172-15.481
		C219.385,28.448,139.649,118.318,139.649,118.318z"/>
	<path stroke="#FFFFFF" stroke-linecap="round" stroke-miterlimit="10" d="M239.289,56.154"/>
	<polygon stroke="#FFFFFF" stroke-width="10" stroke-linecap="round" stroke-miterlimit="10" points="102.679,109.248 -9,280.903 
		166.154,171.81 165.836,130.493 140.939,109.248 	"/>
	
		<line fill="none" stroke="#FFFFFF" stroke-width="5" stroke-linecap="round" stroke-miterlimit="10" x1="105.987" y1="116.688" x2="159.965" y2="168.709"/>
	<g>
		<path fill="#FFFFFF" d="M9.774,262.23l119.582-120.955c0.777-0.786,2.043-0.792,2.829-0.016c0.786,0.777,0.793,2.043,0.016,2.829
			c-0.009,0.009-0.024,0.024-0.033,0.033L9.774,262.23z"/>
	</g>
	<path stroke="#FFFFFF" stroke-width="10" stroke-linecap="round" stroke-miterlimit="10" d="M269.274,28.405
		c0,12.396-10.05,22.44-22.442,22.44c-12.391,0-22.439-10.044-22.439-22.44c0-12.393,10.049-22.44,22.439-22.44
		C259.225,5.965,269.274,16.012,269.274,28.405z"/>
</g>
</svg>
