<?xml version="1.0" encoding="utf-8"?>
<!-- Generator: Adobe Illustrator 16.0.0, SVG Export Plug-In . SVG Version: 6.00 Build 0)  -->
<!DOCTYPE svg PUBLIC "-//W3C//DTD SVG 1.1//EN" "http://www.w3.org/Graphics/SVG/1.1/DTD/svg11.dtd">
<svg version="1.1" id="Layer_1" xmlns="http://www.w3.org/2000/svg" xmlns:xlink="http://www.w3.org/1999/xlink" x="0px" y="0px"
	 width="274.5px" height="272px" viewBox="0 0 274.5 272" enable-background="new 0 0 274.5 272" xml:space="preserve">
<g>
	<g>
		<path stroke="#FFFFFF" stroke-width="10" stroke-miterlimit="10" d="M260.461,243.269c0,0,0.381,4.875-6.203,12.957
			c-6.291,6.459-11.875,6.625-11.875,6.625L7.425,63.894L5.416,6.386l54.134,3.883L260.461,243.269z"/>
		<rect x="192.135" y="234.852" width="0" height="0"/>
		
			<rect x="175.405" y="141.387" transform="matrix(-0.7088 -0.7054 0.7054 -0.7088 181.9545 443.3818)" width="14.166" height="85.499"/>
		
			<rect x="185.874" y="149.582" transform="matrix(-0.7088 -0.7054 0.7054 -0.7088 189.2139 462.7776)" fill="#FFFFFF" width="8.518" height="85.499"/>
		<rect x="76.414" y="234.853" width="0" height="0"/>
		<circle stroke="#FFFFFF" stroke-width="5" stroke-miterlimit="10" cx="251.301" cy="251.858" r="17.008"/>
	</g>
	<g>
		<path stroke="#FFFFFF" stroke-width="10" stroke-miterlimit="10" d="M13.264,243.269c0,0-0.381,4.875,6.203,12.957
			c6.291,6.459,11.875,6.625,11.875,6.625L266.299,63.894l2.01-57.508l-54.135,3.883L13.264,243.269z"/>
		<rect x="81.59" y="234.852" width="0" height="0"/>
		
			<rect x="84.154" y="141.387" transform="matrix(0.7088 -0.7054 0.7054 0.7088 -103.3211 117.9718)" width="14.166" height="85.499"/>
		
			<rect x="79.333" y="149.582" transform="matrix(0.7088 -0.7054 0.7054 0.7088 -111.3342 114.9824)" fill="#FFFFFF" width="8.518" height="85.499"/>
		<rect x="197.311" y="234.853" width="0" height="0"/>
		<circle stroke="#FFFFFF" stroke-width="5" stroke-miterlimit="10" cx="22.424" cy="251.858" r="17.008"/>
	</g>
</g>
</svg>
